<svg xmlns="http://www.w3.org/2000/svg" viewBox="0 0 450 534.35"><defs><style>.cls-1{fill:#020202;}</style></defs><g id="Layer_2" data-name="Layer 2"><g id="Layer_1-2" data-name="Layer 1"><path class="cls-1" d="M26.17,533.85A25.7,25.7,0,0,1,.5,508.18V165.66a37.32,37.32,0,0,1,13.85-29.08L94.5,80.93v-.26a3.17,3.17,0,0,1,3.17-3.17h.17L187.2,8.12A44.35,44.35,0,0,1,212.11.5H434.38A15.13,15.13,0,0,1,449.5,15.62V511.41a22.46,22.46,0,0,1-22.44,22.44Z"/><path d="M434.38,1A14.64,14.64,0,0,1,449,15.62V511.41a22,22,0,0,1-21.94,21.94H26.17A25.2,25.2,0,0,1,1,508.18V165.66A36.84,36.84,0,0,1,14.63,137l79.94-55.5.43-.3v-.52A2.68,2.68,0,0,1,97.67,78H98l.27-.21,89.2-69.26A43.87,43.87,0,0,1,212.11,1H434.38m0-1H212.11a45.07,45.07,0,0,0-25.22,7.72L97.67,77A3.67,3.67,0,0,0,94,80.67L14,136.19A38,38,0,0,0,0,165.66V508.18a26.17,26.17,0,0,0,26.17,26.17H427.06A22.94,22.94,0,0,0,450,511.41V15.62A15.62,15.62,0,0,0,434.38,0Z"/></g></g></svg>