<svg xmlns="http://www.w3.org/2000/svg" viewBox="0 0 283 334"><defs><style>.cls-1{fill:#f07f21;}.cls-2{fill:#f69e20;}.cls-3{fill:#fff;}</style></defs><g id="Layer_2" data-name="Layer 2"><g id="Layer_1-2" data-name="Layer 1"><polygon class="cls-1" points="142.5 334 0 247.73 0 0 283 0 283 244.67 142.5 334"/><polygon class="cls-2" points="155 11 267 11 267 235 155 308 155 11"/><polygon class="cls-3" points="49 225 143 266 144 49 106 43 108 219 81 211 81 185 49 168 49 225"/><polygon class="cls-3" points="166 52 253 43 259 77 231 83 231 73 197 82 201 125 259 119 259 217 166 266 166 213 196 202 198 219 229 208 221 168 166 176 166 52"/></g></g></svg>